# xmcd
#
# Track frame offsets:
#   150
#   14247
#   26119
#   42540
#   57584
#   67678
#   88614
#   108769
#   119557
#   131053
#   143695
#   156245
#   175118
#   189488
#   203646
#   217548
#   229445
#   242472
#   258718
#   270418
#
# Disc length: 3765 seconds
#
# Revision: 0
# Processed by: cddbd v1.5.2PL0 Copyright (c) Steve Scherf et al.
# Submitted via: ProFiler_MP3 1.4.100
#
DISCID=1f0eb314
DTITLE=Paul Anka - Romantic Dinner
DYEAR=1900
DGENRE=Oldies
TTITLE0=Thats Amore
TTITLE1=Only You
TTITLE2=Always on my mind
TTITLE3=What a wonderful world
TTITLE4=Love Letters in the Sand
TTITLE5=Somethings gotten hold of my heart
TTITLE6=Killing me softly with her song
TTITLE7=All I have to do is dream
TTITLE8=Welcome to my world
TTITLE9=Blue Velvet
TTITLE10=Stand by your man
TTITLE11=Fly me to the moon
TTITLE12=Let there be love
TTITLE13=Island in the sun
TTITLE14=I will always love you
TTITLE15=Just walking in the rain
TTITLE16=Ginny come lately
TTITLE17=Unchained Melody
TTITLE18=The most beautiful girl
TTITLE19=Put your head on my shoulder
EXTD=
EXTT0=
EXTT1=
EXTT2=
EXTT3=
EXTT4=
EXTT5=
EXTT6=
EXTT7=
EXTT8=
EXTT9=
EXTT10=
EXTT11=
EXTT12=
EXTT13=
EXTT14=
EXTT15=
EXTT16=
EXTT17=
EXTT18=
EXTT19=
PLAYORDER=
